<svg style="transform: rotate(90deg);" xmlns="http://www.w3.org/2000/svg" version="1.0" width="800" height="800"><path fill="#812C7C" d="M142.028 195.026c-.525 1.002-.615 2.043-.28 3.125.338 1.082 1.009 1.883 2.011 2.411l126.07 73.141.265.139a3.99 3.99 0 001.594.476c.56.05 1.115-.018 1.65-.202a4.04 4.04 0 001.436-.84c.42-.377.746-.825.979-1.34a164.935 164.935 0 0121.378-29.578 164.709 164.709 0 0127.352-24.159 164.788 164.788 0 0131.989-17.564 164.67 164.67 0 0135.067-10.105c1.038-.252 1.86-.817 2.456-1.706.598-.89.813-1.863.65-2.92l-.056-.285L367.911 42.53l-.031-.247a3.988 3.988 0 00-1.616-2.468 3.97 3.97 0 00-2.852-.749l-.372.088a320.613 320.613 0 00-33.943 8.049 318.857 318.857 0 00-32.866 11.693 319.968 319.968 0 00-31.402 15.199 319.8 319.8 0 00-29.558 18.521 319.143 319.143 0 00-27.371 21.629 319.099 319.099 0 00-24.854 24.478 320.253 320.253 0 00-22.048 27.034 320.103 320.103 0 00-18.97 29.269"/><path fill="#005093" d="M70.048 471.466c.661 1.467 1.789 2.278 3.394 2.43a4.08 4.08 0 002.018-.343l136.034-52.314.303-.146c.52-.222.971-.534 1.362-.941a4.07 4.07 0 001.111-3.047 4.12 4.12 0 00-.435-1.604 164.094 164.094 0 01-9.712-35.134 164.254 164.254 0 01-1.75-36.417 164.085 164.085 0 016.307-35.907 164.6 164.6 0 0114.045-33.642c.46-.969.531-1.963.213-2.986a3.974 3.974 0 00-1.873-2.334l-.266-.125-128.461-68.822-.233-.109a4.069 4.069 0 00-3.132-.261 3.948 3.948 0 00-1.396.783 4.034 4.034 0 00-.988 1.263 318.805 318.805 0 00-14.958 31.477 318.325 318.325 0 00-11.442 32.921 318.817 318.817 0 00-7.785 33.967 319.505 319.505 0 00-4.035 34.617 319.726 319.726 0 00-.237 34.848 318.411 318.411 0 003.561 34.667 318.742 318.742 0 007.318 34.074 318.637 318.637 0 0010.99 33.068"/><path fill="#008FC9" d="M242.955 698.66c1.093.286 2.128.141 3.103-.433.976-.568 1.61-1.398 1.894-2.494l43.393-138.94.073-.324a4.067 4.067 0 00.11-1.657 3.98 3.98 0 00-.562-1.558 3.995 3.995 0 00-1.144-1.208 4.099 4.099 0 00-1.527-.648 164.112 164.112 0 01-33.611-14.203 164.61 164.61 0 01-29.669-21.235 164.849 164.849 0 01-24.282-27.241 164.548 164.548 0 01-17.701-31.908 3.94 3.94 0 00-2.206-2.024 3.94 3.94 0 00-2.994.029l-.265.105-133.82 57.805-.233.107c-.962.436-1.65 1.151-2.064 2.124a3.956 3.956 0 00-.094 2.961l.125.342a320.466 320.466 0 0015.449 31.274 319.26 319.26 0 0018.763 29.403 321.127 321.127 0 0021.85 27.193 320.105 320.105 0 0051.894 46.465 319.973 319.973 0 0029.431 18.725 319.837 319.837 0 0031.288 15.413 320.311 320.311 0 0032.785 11.913"/><path fill="#009949" d="M527.237 705.408c.909-.671 1.446-1.563 1.612-2.681.168-1.114-.085-2.127-.753-3.033L446.847 578.84l-.216-.266c-.977-1.38-2.298-1.928-3.962-1.648a3.795 3.795 0 00-1.374.484 165.161 165.161 0 01-32.265 17.437 164.954 164.954 0 01-35.314 9.906 165.124 165.124 0 01-36.63 1.886 165.078 165.078 0 01-36.146-6.228 3.919 3.919 0 00-2.974.43 3.907 3.907 0 00-1.846 2.371l-.073.266-38.784 140.318-.053.251a3.791 3.791 0 00-.055 1.784c.344 1.691 1.349 2.751 3.018 3.179a319.406 319.406 0 0034.07 7.594 319.37 319.37 0 0034.694 3.85 319.98 319.98 0 0069.61-3.681 320.687 320.687 0 0034.09-7.483 319.622 319.622 0 0033.078-11.144 320.631 320.631 0 0061.56-32.702"/><path fill="#FFF101" d="M712.323 488.624c.049-1.617-.623-2.834-2.017-3.655a4.14 4.14 0 00-1.963-.542l-145.357-11.336h-.303a3.906 3.906 0 00-1.642.26 4.02 4.02 0 00-1.399.9 3.957 3.957 0 00-.918 1.386 3.97 3.97 0 00-.289 1.637 164.51 164.51 0 01-6.418 35.907 164.337 164.337 0 01-14.153 33.606 164.409 164.409 0 01-21.194 29.687 164.388 164.388 0 01-27.2 24.294 3.905 3.905 0 00-1.489 2.605 3.901 3.901 0 00.705 2.915l.163.231 86.177 117.372.161.198a3.99 3.99 0 002.535 1.538c1.044.188 2.012 0 2.913-.559l.287-.213a318.791 318.791 0 0027.087-21.95 321.102 321.102 0 0024.536-24.772 319.003 319.003 0 0021.688-27.298 319.023 319.023 0 0018.589-29.496 319.739 319.739 0 0027.023-64.172c3.319-11.157 6.023-22.456 8.111-33.911s3.546-22.985 4.373-34.59"/><path fill="#E9822C" d="M657.381 208.595a4.09 4.09 0 00-1.396-.792 3.941 3.941 0 00-1.594-.195 4.058 4.058 0 00-1.551.429 4.053 4.053 0 00-1.265.988L551.257 314.662l-.216.25a4.001 4.001 0 00-.835 1.429 3.923 3.923 0 00-.191 1.646c.053.558.213 1.087.486 1.58.27.492.631.913 1.077 1.255a164.372 164.372 0 0123.915 27.542 164.255 164.255 0 0117.266 32.133 164.376 164.376 0 019.773 35.14 164.135 164.135 0 011.796 36.43c0 .54.092 1.053.286 1.534a4.142 4.142 0 003.48 2.557h.304l145.588 7.054h.247a3.988 3.988 0 002.796-.991 3.967 3.967 0 001.4-2.614v-.358a319.427 319.427 0 00-22.717-136.546 317.722 317.722 0 00-14.779-31.577 318.612 318.612 0 00-18.137-29.782 319.424 319.424 0 00-21.267-27.625 319.038 319.038 0 00-24.149-25.145"/><path fill="#D8232A" d="M402.471 78.42a4.092 4.092 0 00-1.479.609 4.13 4.13 0 00-1.131 1.132 4.008 4.008 0 00-.609 1.478 4.036 4.036 0 00.003 1.598l21.323 143.999.056.323a4.046 4.046 0 001.802 2.688c.476.307.991.503 1.545.595a4.024 4.024 0 001.65-.069 165.037 165.037 0 0136.477-1.761 164.693 164.693 0 0135.973 6.291 164.552 164.552 0 0133.718 14.029 164.711 164.711 0 0129.813 21.083 3.94 3.94 0 002.86.858 3.928 3.928 0 002.674-1.324l.197-.232 95.408-110.033.178-.181a3.97 3.97 0 00.951-2.815 3.972 3.972 0 00-1.198-2.718l-.286-.249a320.295 320.295 0 00-57.174-39.855 320.206 320.206 0 00-31.496-15.037 321.767 321.767 0 00-32.941-11.523 320.826 320.826 0 00-68.65-12.004 320.638 320.638 0 00-69.626 3.115"/><path fill="#1A1919" d="M342.398 387.681l49.912-35.551 49.929 35.551-19.072 57.552h-61.713l-19.056-57.552zm139.213 84.391c7.626-9.682 13.441-20.348 17.464-31.99a108.673 108.673 0 005.982-35.954c0-1.178-.087-2.356-.087-3.52a66.501 66.501 0 01-6.607 14.323 72.419 72.419 0 00-2.499-9.892c-3.01-9.402-7.828-17.753-14.464-25.057l-33.747 6.768-.126-.373 31.502-14.213c.927-9.621-.152-19.005-3.234-28.162a75.644 75.644 0 00-3.857-9.465 66.48 66.48 0 0114.231 8.058c-7.484-11.016-16.637-20.405-27.46-28.16-10.822-7.758-22.652-13.415-35.484-16.964a62.94 62.94 0 0112.465 11.07 77.297 77.297 0 00-10.322-.715c-9.859-.072-19.318 1.841-28.373 5.751l-3.912 33.732h-.395l-3.929-33.697c-9.058-3.925-18.521-5.849-28.391-5.787a77.21 77.21 0 00-10.305.715 61.424 61.424 0 0112.5-11.07c-12.849 3.555-24.69 9.214-35.521 16.982-10.833 7.77-19.991 17.167-27.479 28.197a65.993 65.993 0 0114.305-8.109 73.167 73.167 0 00-3.857 9.465c-3.083 9.147-4.163 18.521-3.25 28.126l31.553 14.232-.123.358-33.75-6.733c-6.647 7.315-11.482 15.678-14.499 25.09a68.13 68.13 0 00-2.499 9.898 65.991 65.991 0 01-6.625-14.433c-.088 1.196-.088 2.394-.088 3.629a108.597 108.597 0 006.101 35.99c4.06 11.657 9.927 22.315 17.595 31.988a68.313 68.313 0 01-3.069-15.089 77.489 77.489 0 007.927 6.556c7.804 5.674 16.713 9.697 26.164 11.747l23.604-25.395.339.232-17.125 29.912a69.085 69.085 0 0019.605 21.25 76.08 76.08 0 008.75 5.409 71.354 71.354 0 01-15.413 1.763c12.222 4.314 24.816 6.464 37.779 6.464 12.964 0 25.554-2.149 37.776-6.464a72.058 72.058 0 01-15.356-1.778 77.952 77.952 0 008.768-5.414 68.69 68.69 0 0019.59-21.252l-17.106-29.89.322-.232 23.604 25.395c9.539-2.101 18.261-6.02 26.162-11.769a74.522 74.522 0 007.928-6.554 69.374 69.374 0 01-3.064 15.031zm-89.284-188.409c66.966-.355 121.537 53.574 122.017 120.534a120.269 120.269 0 01-2.307 23.456 119.934 119.934 0 01-2.86 11.446 121.153 121.153 0 01-3.962 11.11 120.933 120.933 0 01-11.089 20.803 121.407 121.407 0 01-7.012 9.485 120.331 120.331 0 01-26.091 23.746 120.616 120.616 0 01-10.103 6.091 117.356 117.356 0 01-10.65 5.074 122.03 122.03 0 01-11.098 4.015 120.39 120.39 0 01-11.432 2.901c-3.861.78-7.747 1.376-11.663 1.771a119.17 119.17 0 01-11.782.626c-3.94.017-7.868-.159-11.786-.533a120.112 120.112 0 01-23.134-4.487 120.002 120.002 0 01-11.125-3.924 119.644 119.644 0 01-20.846-10.999 119.609 119.609 0 01-9.513-6.97 121.302 121.302 0 01-8.792-7.874 120.132 120.132 0 01-7.977-8.69 119.45 119.45 0 01-7.091-9.428 121.91 121.91 0 01-6.135-10.079 120.81 120.81 0 01-9.173-21.711 121.87 121.87 0 01-2.951-11.425 119.998 119.998 0 01-1.822-11.65 121.382 121.382 0 01-.676-11.782 120.96 120.96 0 012.113-23.469 118.512 118.512 0 012.765-11.469 119.48 119.48 0 013.874-11.145 120.884 120.884 0 0110.911-20.884 120.393 120.393 0 0132.832-33.508 119.72 119.72 0 0110.052-6.176 121.437 121.437 0 0110.611-5.16 119.925 119.925 0 0111.059-4.102 120.494 120.494 0 0134.836-5.593z"/><path fill="#FFFFFE" d="M343.58 387.074l18.857 56.854h60.982l18.839-56.854-49.337-35.16-49.321 35.16h-.02zm138.031 84.93a69.865 69.865 0 003.071-15.055 75.566 75.566 0 01-7.929 6.572c-7.896 5.746-16.615 9.667-26.16 11.766l-23.588-25.39-.34.228 17.108 29.895a68.728 68.728 0 01-19.59 21.229 75.095 75.095 0 01-8.75 5.41 71.553 71.553 0 0015.36 1.786c-12.221 4.304-24.811 6.464-37.768 6.464-12.959 0-25.548-2.16-37.768-6.464a72.176 72.176 0 0015.392-1.769 75.506 75.506 0 01-8.747-5.411c-8.05-5.68-14.579-12.762-19.59-21.246l17.109-29.895-.342-.228-23.608 25.39c-9.535-2.09-18.25-6.012-26.139-11.751a74.07 74.07 0 01-7.913-6.569 68.046 68.046 0 003.053 15.105 108.7 108.7 0 01-17.597-31.984 108.755 108.755 0 01-6.099-35.997c0-1.215 0-2.428.089-3.604a66.02 66.02 0 006.607 14.404 71.087 71.087 0 012.537-9.892 68.006 68.006 0 0114.482-25.086l33.75 6.75.105-.355-31.535-14.235c-.913-9.604.169-18.977 3.249-28.125a75.994 75.994 0 013.86-9.46 65.212 65.212 0 00-14.288 8.102c7.482-11.024 16.634-20.421 27.463-28.189 10.827-7.771 22.661-13.432 35.503-16.985a62.573 62.573 0 00-12.503 11.073 76.42 76.42 0 0110.305-.715c9.872-.067 19.336 1.863 28.393 5.784l3.928 33.678h.394l3.908-33.716c9.05-3.897 18.502-5.81 28.357-5.728 3.447 0 6.894.23 10.322.698a62.956 62.956 0 00-12.465-11.073c12.829 3.553 24.658 9.208 35.476 16.965 10.819 7.76 19.973 17.146 27.451 28.159a65.633 65.633 0 00-14.23-8.036 72.645 72.645 0 013.856 9.465 67.695 67.695 0 013.251 28.142l-31.499 14.2.142.373 33.715-6.75a68.03 68.03 0 0114.464 25.031 70.708 70.708 0 012.499 9.897 66.242 66.242 0 006.607-14.301c0 1.154.087 2.315.087 3.491a108.562 108.562 0 01-5.982 35.957 108.544 108.544 0 01-17.463 31.995z"/></svg>