<svg viewBox="0 0 35 35" xmlns="http://www.w3.org/2000/svg">
<path d="M29.8763 5.12562C26.572 1.82034 22.1789 0 17.5061 0C12.8331 0 8.44025 1.82034 5.13603 5.12562C1.83182 8.43117 0.0122834 12.8257 0.0122834 17.5C0.0122834 20.024 0.562897 22.537 1.61045 24.8161C0.611229 25.8983 0 27.3443 0 28.9302C0 32.2771 2.72209 35 6.06796 35C7.65118 35 9.09447 34.3904 10.1762 33.3936C12.4588 34.4464 14.9771 35 17.5061 35C22.1789 35 26.5723 33.1797 29.8763 29.8744C33.1805 26.5688 35 22.1743 35 17.5C35 12.8257 33.1805 8.43117 29.8763 5.12562ZM6.06796 32.9492C3.85296 32.9492 2.05078 31.1462 2.05078 28.9302C2.05078 26.7138 3.85296 24.9109 6.06796 24.9109C8.28323 24.9109 10.0854 26.7138 10.0854 28.9302C10.0854 31.1462 8.28323 32.9492 6.06796 32.9492ZM28.426 28.4244C25.509 31.3422 21.6309 32.9492 17.5061 32.9492C15.3945 32.9492 13.3645 32.5361 11.4563 31.7198C11.8905 30.884 12.1362 29.9353 12.1362 28.9302C12.1362 25.5832 9.4141 22.8601 6.06796 22.8601C5.0658 22.8601 4.11919 23.1047 3.28526 23.537C2.47375 21.6325 2.06306 19.6069 2.06306 17.5C2.06306 13.3733 3.66951 9.49368 6.58627 6.57558C9.50302 3.65776 13.3811 2.05078 17.5061 2.05078C21.6309 2.05078 25.509 3.65776 28.4258 6.57558C31.3428 9.49368 32.9492 13.3733 32.9492 17.5C32.9492 21.6267 31.3428 25.5063 28.426 28.4244V28.4244Z"/>
<path d="M7.91824 27.9048H7.09338V27.0794C7.09338 26.513 6.63436 26.054 6.06799 26.054C5.50189 26.054 5.0426 26.513 5.0426 27.0794V27.9048H4.21802C3.65165 27.9048 3.19263 28.3638 3.19263 28.9302C3.19263 29.4963 3.65165 29.9556 4.21802 29.9556H5.0426V30.781C5.0426 31.3471 5.50163 31.8064 6.06799 31.8064C6.63436 31.8064 7.09338 31.3471 7.09338 30.781V29.9556H7.91797C8.48434 29.9556 8.94336 29.4963 8.94336 28.9302C8.94336 28.3638 8.48434 27.9048 7.91824 27.9048V27.9048Z"/>
<path d="M20.7145 22.9775L17.3349 22.0007L13.9553 22.9775C13.926 23.0361 13.9163 23.0947 13.9163 23.1631V25.1817H20.7536V23.1631C20.7536 23.0947 20.7438 23.0361 20.7145 22.9775Z"/>
<path d="M20.7536 25.1817V23.1631C20.7536 23.0947 20.7438 23.0361 20.7146 22.9775L17.335 22.0007V25.1817H20.7536Z"/>
<path d="M25.1816 9.97676H22.6862C22.6905 9.81178 22.7072 9.65638 22.7072 9.48838C22.7072 9.21485 22.4923 9 22.2188 9H12.4512C12.1777 9 11.9628 9.21485 11.9628 9.48838C11.9628 9.65638 11.9795 9.81178 11.9838 9.97676H9.48838C9.21844 9.97676 9 10.1952 9 10.4651V11.7023C9 14.4292 11.1844 16.6444 13.8764 16.787C14.4372 17.5592 15.1028 18.1322 15.8601 18.455C15.7429 20.8285 14.3852 22.4793 14.0629 22.8212C14.014 22.8602 13.975 22.9188 13.9554 22.9774H20.7146C20.695 22.9188 20.656 22.8602 20.6071 22.8212C20.275 22.4793 18.9271 20.8383 18.8099 18.455C19.5673 18.1321 20.2369 17.559 20.7982 16.7865C23.4879 16.6416 25.67 14.4277 25.67 11.7023V10.4651C25.67 10.1952 25.4516 9.97676 25.1816 9.97676ZM9.97676 11.7023V10.9535H12.0257C12.1524 12.5677 12.5025 14.2773 13.2382 15.7301C11.394 15.3148 9.97676 13.6703 9.97676 11.7023ZM24.6932 11.7023C24.6932 13.6693 23.2772 15.313 21.4345 15.7293C22.1644 14.2765 22.5163 12.5834 22.6443 10.9535H24.6932V11.7023Z"/>
<path d="M25.1816 9.97676H22.6861C22.6904 9.81178 22.7071 9.65638 22.7071 9.48838C22.7071 9.21485 22.4923 9 22.2188 9H17.335V22.9774H20.7146C20.695 22.9188 20.656 22.8602 20.6071 22.8212C20.275 22.4793 18.9271 20.8383 18.8099 18.455C19.5673 18.1321 20.2369 17.559 20.7982 16.7865C23.4879 16.6416 25.67 14.4277 25.67 11.7023V10.4651C25.67 10.1952 25.4515 9.97676 25.1816 9.97676V9.97676ZM24.6932 11.7023C24.6932 13.6693 23.2772 15.313 21.4344 15.7293C22.1644 14.2765 22.5164 12.5834 22.6443 10.9535H24.6932V11.7023Z"/>
<path d="M18.1141 15.212L17.3348 14.8071L16.5555 15.212C16.3924 15.2959 16.193 15.2821 16.0433 15.1738C15.8935 15.0651 15.8182 14.881 15.8487 14.6988L15.9918 13.8313L15.367 13.2146C15.231 13.082 15.1894 12.8855 15.2449 12.7157C15.3022 12.5402 15.4538 12.4114 15.637 12.3838L16.505 12.2531L16.8979 11.4676C17.0639 11.1366 17.6057 11.1366 17.7717 11.4676L18.1647 12.2531L19.0327 12.3838C19.2158 12.4115 19.3675 12.5402 19.4247 12.7157C19.482 12.8917 19.4352 13.0849 19.3026 13.2146L18.6779 13.8313L18.821 14.6988C18.8515 14.881 18.7761 15.0651 18.6264 15.1738C18.4776 15.2816 18.2786 15.2976 18.1141 15.212Z" fill="white"/>
<path d="M18.1143 15.212C18.2788 15.2976 18.4778 15.2817 18.6265 15.1739C18.7763 15.0651 18.8516 14.881 18.8211 14.6988L18.678 13.8313L19.3028 13.2146C19.4353 13.0849 19.4821 12.8917 19.4249 12.7158C19.3676 12.5402 19.216 12.4115 19.0328 12.3838L18.1648 12.2531L17.7718 11.4676C17.6888 11.3021 17.5119 11.2194 17.335 11.2194V14.8071L18.1143 15.212Z" fill="white"/>
<path d="M21.242 25.67H13.428C13.158 25.67 12.9396 25.4516 12.9396 25.1816C12.9396 24.9117 13.158 24.6932 13.428 24.6932H21.242C21.512 24.6932 21.7304 24.9117 21.7304 25.1816C21.7304 25.4516 21.512 25.67 21.242 25.67Z"/>
<path d="M21.242 24.6932H17.335V25.67H21.242C21.5119 25.67 21.7304 25.4516 21.7304 25.1816C21.7304 24.9117 21.5119 24.6932 21.242 24.6932Z"/>
</svg>