<svg  viewBox="0 0 512 512" xmlns="http://www.w3.org/2000/svg"><path d="M503.465 409.602c0 51.882-110.762 93.863-247.465 93.863S8.535 461.485 8.535 409.602c0-25.86 27.477-49.325 72.106-66.305a206.173 206.173 0 0022.699 27.562c1.535 1.621 3.07 3.157 4.691 4.606 3.074 3.074 6.23 5.89 9.473 8.62.172.173.258.34.426.427 2.902 2.476 5.804 4.863 8.875 7.082.699.597 1.441 1.136 2.218 1.62 3.075 2.391 6.23 4.61 9.473 6.743.465.316.95.602 1.45.855 2.562 1.79 5.12 3.329 7.765 4.864 2.133 1.363 4.351 2.558 6.57 3.754 2.989 1.707 6.059 3.242 9.219 4.691 2.473 1.281 5.117 2.39 7.68 3.586 3.925 1.707 7.933 3.242 11.945 4.691 2.219.77 4.352 1.54 6.57 2.22a163.98 163.98 0 009.301 2.816c.184.109.387.168.598.171.07.067.164.098.258.086 2.046.598 4.18 1.11 6.312 1.536.149.171.383.238.598.171 2.133.606 4.3 1.09 6.488 1.45.805.254 1.633.422 2.473.511 2.304.426 4.609.856 6.996 1.196a189.304 189.304 0 0019.797 2.218c1.28.086 2.562.172 3.757.172 3.243.168 6.485.254 9.727.254s6.484-.086 9.727-.254c1.195 0 2.476-.086 3.757-.172a189.304 189.304 0 0019.797-2.218c2.387-.34 4.692-.77 6.996-1.196.84-.09 1.668-.257 2.477-.511a58.619 58.619 0 006.484-1.45c.215.067.45 0 .598-.171a75.138 75.138 0 006.312-1.536.317.317 0 00.258-.086c.211-.003.414-.062.598-.171a163.98 163.98 0 009.3-2.817c2.22-.68 4.352-1.449 6.571-2.219 4.012-1.449 8.02-2.984 11.945-4.691 2.563-1.195 5.207-2.305 7.68-3.586 3.16-1.45 6.23-2.984 9.219-4.691 2.219-1.196 4.437-2.39 6.57-3.754 2.645-1.535 5.203-3.074 7.766-4.864.5-.253.984-.539 1.449-.855 3.242-2.133 6.398-4.352 9.473-6.742a18.323 18.323 0 002.218-1.621c3.07-2.219 5.973-4.606 8.875-7.082.168-.086.254-.254.426-.426 3.242-2.73 6.399-5.547 9.473-8.621 1.62-1.45 3.156-2.985 4.691-4.606a206.173 206.173 0 0022.7-27.562c44.628 16.98 72.105 40.445 72.105 66.305zm0 0" fill="#4caf50"/><path d="M443.734 409.602c0-32.993-84.05-59.735-187.734-59.735S68.266 376.61 68.266 409.602c0 32.988 84.05 59.73 187.734 59.73s187.734-26.742 187.734-59.73zm0 0" fill="#2e7d32"/><path d="M460.457 282.71c-.68 2.22-1.363 4.438-2.133 6.657-1.363 4.438-2.984 8.79-4.777 13.055-.852 2.133-1.793 4.18-2.73 6.312a135.962 135.962 0 01-2.903 6.23c-1.535 3.329-3.242 6.571-5.035 9.813-1.11 2.051-2.305 4.098-3.496 6.145-2.477 4.183-5.121 8.363-8.024 12.375a206.173 206.173 0 01-22.699 27.562c-1.535 1.536-3.07 3.07-4.691 4.606h-25.602c1.621-1.535 3.156-3.07 4.695-4.606a206.775 206.775 0 0022.7-27.562c2.898-4.012 5.547-8.192 8.02-12.375 1.195-2.047 2.39-4.094 3.5-6.145 1.788-3.242 3.495-6.484 5.034-9.812a135.924 135.924 0 002.899-6.23c.941-2.133 1.879-4.18 2.73-6.313 1.793-4.266 3.414-8.617 4.782-13.055.765-2.219 1.449-4.437 2.132-6.656a204.302 204.302 0 007.082-33.281zm0 0" fill="#cfd8dc"/><path d="M403.969 375.465c-3.074 2.988-6.23 5.89-9.473 8.62-.172.173-.258.34-.426.427-2.902 2.476-5.804 4.863-8.875 7.082-.699.597-1.441 1.136-2.218 1.62-3.075 2.391-6.23 4.61-9.473 6.743-.465.316-.95.602-1.45.856a84.441 84.441 0 01-7.765 4.863c-2.133 1.363-4.352 2.558-6.57 3.754-3.074 1.62-6.145 3.242-9.219 4.691-2.559 1.281-5.035 2.39-7.68 3.586-3.925 1.707-7.933 3.242-11.945 4.691-2.133.856-4.352 1.54-6.57 2.22a163.98 163.98 0 01-9.301 2.816c-.184.109-.387.168-.598.171l28.926-52.14zm0 0" fill="#37474f"/><path d="M199.594 427.605a1.204 1.204 0 01-.598-.171 163.98 163.98 0 01-9.3-2.817c-2.22-.68-4.438-1.363-6.571-2.219-4.012-1.449-8.02-2.984-11.945-4.691-2.645-1.195-5.121-2.305-7.68-3.586-3.074-1.45-6.145-3.07-9.219-4.691-2.219-1.196-4.437-2.39-6.57-3.754a84.441 84.441 0 01-7.766-4.863c-.5-.254-.984-.54-1.449-.856-3.242-2.133-6.398-4.352-9.473-6.742a18.323 18.323 0 01-2.218-1.621c-3.07-2.219-5.973-4.606-8.875-7.082-.168-.086-.254-.254-.426-.426-3.242-2.73-6.399-5.633-9.473-8.621h62.637zm0 0" fill="#607d8b"/><path d="M213.332 298.668l-42.664 76.797h-62.637c-1.62-1.535-3.156-3.07-4.691-4.606a206.173 206.173 0 01-22.7-27.562c-2.902-4.012-5.546-8.192-8.023-12.375-1.191-2.047-2.387-4.094-3.496-6.145-1.793-3.242-3.5-6.484-5.035-9.812a135.962 135.962 0 01-2.902-6.23c-.938-2.133-1.875-4.18-2.73-6.313-1.794-4.266-3.415-8.617-4.778-13.055-.77-2.219-1.453-4.437-2.133-6.656l33.789-60.844h85.336zm0 0" fill="#fff"/><path d="M85.332 221.867l-33.789 60.844a212.954 212.954 0 010-121.688zm0 0" fill="#607d8b"/><path d="M213.332 145.066l-42.664 76.801H85.332l-33.789-60.844a211.712 211.712 0 0156.488-92.757h62.637zm0 0" fill="#fff"/><path d="M341.332 221.867l-42.664 76.801h-85.336l-42.664-76.8 42.664-76.802h85.336zm0 0" fill="#607d8b"/><path d="M460.457 161.023l-18.516 33.282a204.214 204.214 0 00-7.082-33.282 211.756 211.756 0 00-56.492-92.757h25.602a211.712 211.712 0 0156.488 92.757zm0 0" fill="#cfd8dc"/><path d="M403.969 68.266h-62.637l-22.527-40.618-6.399-11.52a210.989 210.989 0 0191.563 52.138zm0 0" fill="#37474f"/><path d="M199.594 16.129l-28.926 52.137h-62.637a210.989 210.989 0 0191.563-52.137zm0 0" fill="#607d8b"/><path d="M318.805 27.648a203.647 203.647 0 00-32-11.52 209.537 209.537 0 00-43.606-7.167c4.184-.258 8.535-.426 12.801-.426a211.693 211.693 0 0156.406 7.594zm0 0" fill="#cfd8dc"/><path d="M469.332 221.867a210.611 210.611 0 01-8.875 60.844l-18.516-33.281-15.273-27.563 15.273-27.562 18.516-33.282a210.611 210.611 0 018.875 60.844zm0 0" fill="#37474f"/><path d="M441.941 249.43a204.302 204.302 0 01-7.082 33.28c-.683 2.22-1.367 4.438-2.132 6.657-1.368 4.438-2.989 8.79-4.782 13.055-.851 2.133-1.789 4.18-2.73 6.312a135.924 135.924 0 01-2.899 6.23c-1.539 3.329-3.246 6.571-5.035 9.813-1.11 2.051-2.304 4.098-3.5 6.145-2.472 4.183-5.12 8.363-8.02 12.375a206.775 206.775 0 01-22.698 27.562c-1.54 1.536-3.075 3.07-4.696 4.606h-37.035l-42.664-76.797 42.664-76.8h85.336zm0 0" fill="#fff"/><path d="M378.367 375.465c-3.07 2.988-6.226 5.89-9.472 8.62-.168.173-.254.34-.426.427-2.903 2.476-5.801 4.863-8.875 7.082a17.73 17.73 0 01-2.219 1.62c-3.07 2.391-6.227 4.61-9.473 6.743-.46.316-.945.602-1.449.856a83.918 83.918 0 01-7.766 4.863c-2.132 1.363-4.351 2.558-6.57 3.754-3.07 1.62-6.144 3.242-9.215 4.691-1.367.684-2.73 1.281-4.097 1.879l22.527-40.535zm0 0" fill="#607d8b"/><path d="M341.332 375.465L318.805 416v.086l-6.399 11.52a.317.317 0 01-.258.085 84.266 84.266 0 01-6.312 1.536c-.149.171-.383.238-.598.171-2.133.598-4.265 1.024-6.484 1.45-.809.254-1.637.422-2.477.511-2.304.512-4.691.856-6.996 1.196a189.304 189.304 0 01-19.797 2.218c-1.195.086-2.476.172-3.757.172-3.243.168-6.485.254-9.727.254s-6.484-.086-9.727-.254a23.26 23.26 0 01-2.39-.172h-1.367a189.304 189.304 0 01-19.797-2.218c-2.301-.34-4.692-.684-6.996-1.196-.84-.09-1.668-.257-2.473-.511-2.219-.426-4.355-.852-6.488-1.45a.568.568 0 01-.598-.171 84.266 84.266 0 01-6.312-1.536.317.317 0 01-.258-.086l-28.926-52.14 42.664-76.797h85.336zm0 0M441.941 194.305l-15.273 27.562h-85.336l-42.664-76.8 42.664-76.801h37.035a211.756 211.756 0 0156.492 92.757 204.214 204.214 0 017.082 33.282zm0 0" fill="#fff"/><path d="M378.367 68.266h-37.035l-22.527-40.618a211.75 211.75 0 0159.562 40.618zm0 0" fill="#607d8b"/><path d="M341.332 68.266l-42.664 76.8h-85.336l-42.664-76.8 28.926-52.137a209.537 209.537 0 0143.605-7.168 209.537 209.537 0 0143.606 7.168 203.647 203.647 0 0132 11.52zm0 0" fill="#fff"/><path d="M443.734 221.867c.008 9.215-.59 18.426-1.793 27.563l-15.273-27.563 15.273-27.562a209.752 209.752 0 011.793 27.562zm0 0" fill="#607d8b"/><path d="M256 512c143.547 0 256-44.98 256-102.398 0-26.926-24.004-51.68-67.855-70.34a220.746 220.746 0 0024.48-54.137v-.152a221.047 221.047 0 000-126.211v-.153a221.972 221.972 0 00-58.352-95.964 7.683 7.683 0 00-.793-.762A221.785 221.785 0 00314.88 7.996l-.274-.078a220.863 220.863 0 00-117.222 0l-.262.078a221.911 221.911 0 00-94.601 53.887 7.683 7.683 0 00-.793.762 221.972 221.972 0 00-58.352 95.964v.153a221.047 221.047 0 000 126.21v.153a220.746 220.746 0 0024.48 54.137C24.004 357.922 0 382.676 0 409.602 0 467.02 112.453 512 256 512zM60.758 283.691l29.601-53.293h75.282l21.332 38.403 16.597 29.867-16.586 29.867-21.336 38.399H111.59a205.126 205.126 0 01-50.832-83.243zm-9.559-61.824a204.857 204.857 0 013.516-37.547l20.855 37.547-20.855 37.547a204.89 204.89 0 01-3.516-37.547zm167.16-68.265h75.282L314.973 192l16.597 29.867-16.586 29.867-21.336 38.399H218.36l-21.332-38.399-16.597-29.867L197.02 192zM165.641 384l15.855 28.578A204.848 204.848 0 01131.09 384zm39.656 36.309l-24.867-44.844 6.894-12.414 31.035-55.852h75.282l31.035 55.86 6.894 12.406-24.863 44.836a205.384 205.384 0 01-101.41 0zM346.359 384h34.551a204.777 204.777 0 01-50.406 28.578zm54.051-17.066h-54.05l-21.333-38.399-16.597-29.867 16.59-29.867 21.332-38.403h75.28l29.602 53.293a205.11 205.11 0 01-50.824 83.243zm60.39-145.067a204.89 204.89 0 01-3.515 37.547l-20.855-37.547 20.855-37.547a204.857 204.857 0 013.516 37.547zm-9.558-61.824l-29.601 53.289h-75.282l-21.332-38.398-16.597-29.868 16.59-29.867 21.332-38.398h54.05a205.05 205.05 0 0150.84 83.242zM346.36 59.734l-15.855-28.578a204.777 204.777 0 0150.406 28.578zm-39.652-36.308l24.863 44.84-6.894 12.418-31.035 55.851h-75.282l-31.035-55.86-6.894-12.41 24.867-44.831a205.384 205.384 0 01101.41 0zM165.641 59.734H131.09a204.848 204.848 0 0150.406-28.578zM111.59 76.801h54.05l21.333 38.398 16.597 29.867-16.586 29.868-21.336 38.398H90.36l-29.601-53.289a205.075 205.075 0 0150.832-83.242zM77.652 353.67a223.679 223.679 0 0024.075 27.419c.246.273.511.527.793.762a221.681 221.681 0 0094.601 53.886l.168.067.293.07a221.01 221.01 0 00116.836 0l.418-.121a221.758 221.758 0 0094.644-53.902c.282-.235.547-.489.793-.762a223.679 223.679 0 0024.075-27.418c38.578 15.82 60.586 35.984 60.586 55.93 0 41.207-96.008 85.332-238.934 85.332S17.066 450.809 17.066 409.602c0-19.946 22.008-40.11 60.586-55.93zm0 0"/></svg>