<svg width="69" height="64" fill="none" xmlns="http://www.w3.org/2000/svg"><g clip-path="url(#clip0)"><path d="M34.083 61.845c8.697 0 15.747-7.238 15.747-16.167 0-8.928-7.05-16.167-15.747-16.167-8.696 0-15.747 7.239-15.747 16.167 0 8.93 7.05 16.167 15.747 16.167z" fill="#DAA78B"/><path d="M36.28 61.688c-.717.105-1.451.157-2.197.157-8.696 0-15.747-7.238-15.747-16.167 0-8.928 7.05-16.167 15.747-16.167.746 0 1.48.053 2.198.158-7.657 1.097-13.55 7.846-13.55 16.01 0 8.163 5.893 14.912 13.55 16.008z" fill="#BF8A6C"/><path d="M19.736 23.9H48.43v5.611H19.736V23.9zM52.774-12.899L34.084 23.9H44.58L60.068-2.122 52.774-12.9z" fill="#BF8A6C"/><path d="M55.284-9.19L38.478 23.9h-4.395l18.69-36.799 2.511 3.709z" fill="#DAA78B"/><path d="M15.393-12.899L8.099-2.122 23.587 23.9h10.496L15.393-12.9z" fill="#BF8A6C"/><path d="M27.98 23.9h-4.394L8.1-2.122l7.294-10.777 1.884 3.709-4.784 7.068L27.981 23.9z" fill="#DAA78B"/><path d="M35.638 55.614c5.344-.89 8.974-6.058 8.107-11.544-.866-5.486-5.9-9.213-11.244-8.324-5.344.89-8.973 6.058-8.107 11.544.866 5.487 5.9 9.213 11.244 8.324z" fill="#BF8A6C"/><path d="M36.312 55.48a9.597 9.597 0 01-2.229.263c-5.406 0-9.803-4.514-9.803-10.064s4.397-10.065 9.803-10.065c.767 0 1.513.092 2.23.263-4.337 1.038-7.575 5.039-7.575 9.802s3.238 8.763 7.574 9.802z" fill="#A6775E"/><path d="M60.97-1.74l-7.294-10.776a1.108 1.108 0 00-.903-.484l-1.811 2.256H17.205L15.394-13c-.353 0-.702.187-.903.484L7.196-1.739c-.248.367-.262.85-.035 1.232l14.467 24.306h-1.892c-.607 0-1.099.505-1.099 1.128v5.611c0 .623.492 1.128 1.099 1.128h6.029c-4.394 2.562-7.57 7.276-8.333 12.407-.092.616.32 1.191.92 1.285.6.095 1.16-.329 1.252-.945 1.081-7.267 7.306-12.747 14.48-12.747 8.077 0 14.648 6.746 14.648 15.04 0 8.292-6.571 15.038-14.649 15.038-7.177 0-13.402-5.484-14.48-12.756a1.104 1.104 0 00-1.252-.945c-.6.094-1.012.669-.92 1.285a17.421 17.421 0 005.625 10.451A16.585 16.585 0 0034.083 64c9.29 0 16.846-7.758 16.846-17.295 0-6.436-3.442-12.06-8.535-15.039h6.037c.607 0 1.099-.505 1.099-1.128v-5.611c0-.623-.492-1.128-1.099-1.128H46.54L61.006-.507a1.154 1.154 0 00-.035-1.232zm-10.008-9.004l-4.328 8.521-1.903 3.747c5.564.003.269-.15.269-.15l.488-1.341-11.405 22.454L22.68.033l-1.146-2.256-4.328-8.521h33.757zM9.41-1.056l5.848-8.641 17.013 33.496h-8.068L9.41-1.056zM47.332 29.41H20.834v-3.355h26.498v3.355zM43.964 23.8h-8.069L52.908-9.697l5.85 8.641-14.794 24.855z" fill="#000"/><path d="M36.209 55.372c-.589.152-.946.765-.797 1.369.334.683.778.956 1.333.818 4.852-1.254 8.24-5.717 8.24-10.854 0-6.171-4.89-11.192-10.902-11.192-6.01 0-10.901 5.02-10.901 11.192 0 5.137 3.388 9.6 8.24 10.854a1.097 1.097 0 001.333-.818c.148-.604-.209-1.217-.797-1.37-3.873-1-6.579-4.565-6.579-8.666 0-4.927 3.905-8.936 8.704-8.936 4.8 0 8.705 4.009 8.705 8.936 0 4.101-2.706 7.665-6.58 8.667z" fill="#000"/><path d="M36.275 46.18c.39.13.68.346.87.647.19.296.285.994.285 2.094 0 .817-.093 1.452-.28 1.905a2 2 0 01-.964 1.028c-.457.233-1.043.35-1.758.35-.813 0-1.452-.136-1.917-.407-.462-.275-.766-.61-.914-1.003-.144-.398-.216-1.085-.216-2.063v-.813h2.564v1.67c0 .444.026.728.077.85.055.119.173.178.355.178.199 0 .33-.076.393-.228.064-.153.096-.55.096-1.194v-.71c0-.394-.045-.682-.134-.864a.65.65 0 00-.393-.355c-.174-.06-.51-.093-1.01-.102v-1.492c.61 0 .987-.023 1.13-.07a.493.493 0 00.311-.304c.064-.157.096-.402.096-.736v-.572c0-.36-.038-.596-.114-.71-.073-.115-.187-.172-.343-.172-.178 0-.3.061-.368.184-.064.119-.096.375-.096.768v.844h-2.564v-.876c0-.981.224-1.644.673-1.986.448-.347 1.161-.521 2.139-.521 1.223 0 2.052.24 2.488.717.436.478.654 1.143.654 1.993 0 .576-.078.993-.235 1.251-.157.254-.431.487-.825.698z" fill="#000"/></g><defs><clipPath id="clip0"><path fill="#fff" d="M0 0h69v64H0z"/></clipPath></defs></svg>