<svg width="20" height="20" viewBox="0 0 20 20" fill="none" xmlns="http://www.w3.org/2000/svg">
<g clip-path="url(#clip0)">
<path d="M19.3037 10.6636C19.6952 5.01506 15.0723 0.3475 9.43377 0.684945C4.54481 0.975042 0.672852 5.03373 0.672852 9.99672C0.672852 15.1531 4.85291 19.3332 10.0093 19.3332C14.9423 19.3332 18.981 15.5079 19.3224 10.6623" fill="url(#paint0_linear)"/>
<path d="M9.39366 0.0193398H9.39432H9.39366ZM19.9939 9.996C19.9939 7.23775 18.8775 4.73424 17.0722 2.92764C15.2683 1.11971 12.7668 0 10.0079 0C9.80446 0 9.59972 0.006002 9.39432 0.0186729C4.15324 0.330777 0.00652626 4.67889 0.00585938 9.99667C0.00652626 15.5218 4.48402 19.9993 10.0092 20C15.2943 19.9987 19.6217 15.9026 19.9879 10.7089L19.9698 10.7076C19.9858 10.4707 19.9938 10.2334 19.9939 9.996V9.996ZM18.6561 10.6189C18.338 15.1144 14.5881 18.6676 10.0092 18.6662C7.61306 18.6656 5.44967 17.6966 3.87915 16.1267C2.30863 14.5562 1.33964 12.3928 1.33964 9.99667C1.3383 5.38846 4.93617 1.61921 9.47302 1.35045H9.47368C9.65308 1.33978 9.83113 1.33444 10.0079 1.33444C12.4027 1.33511 14.5614 2.30277 16.1286 3.87062C17.6944 5.43981 18.6601 7.6012 18.6607 9.99667C18.6607 10.2021 18.6534 10.4088 18.6394 10.6175L18.6561 10.6189Z" fill="#BCBCBC" fill-opacity="0.75"/>
</g>
<defs>
<linearGradient id="paint0_linear" x1="9.99963" y1="19.3328" x2="9.99963" y2="0.66794" gradientUnits="userSpaceOnUse">
<stop stop-color="#9A9A9A" stop-opacity="0.6"/>
<stop offset="1" stop-color="#D9D9D9" stop-opacity="0.6"/>
</linearGradient>
<clipPath id="clip0">
<rect width="20" height="20" fill="white"/>
</clipPath>
</defs>
</svg>
