<svg width="40" height="38" viewBox="0 0 40 38" fill="none" xmlns="http://www.w3.org/2000/svg">
<g clip-path="url(#clip0)">
<path d="M19.7585 35.8524C24.8001 35.8524 28.8872 31.6563 28.8872 26.4802C28.8872 21.3041 24.8001 17.108 19.7585 17.108C14.7168 17.108 10.6297 21.3041 10.6297 26.4802C10.6297 31.6563 14.7168 35.8524 19.7585 35.8524Z" fill="#FFE177"/>
<path d="M21.0323 35.7608C20.6162 35.8219 20.1907 35.8524 19.7585 35.8524C14.7169 35.8524 10.6297 31.6563 10.6297 26.4802C10.6297 21.3041 14.7169 17.108 19.7585 17.108C20.1907 17.108 20.6162 17.1385 21.0323 17.1996C16.5936 17.8351 13.1773 21.7479 13.1773 26.4802C13.1773 31.2125 16.5936 35.1253 21.0323 35.7608Z" fill="#FFC85E"/>
<path d="M11.4411 13.855H28.0759V17.108H11.4411V13.855Z" fill="#FFC85E"/>
<path d="M30.5936 -7.47754L19.7585 13.855H25.8435L34.8221 -1.23027L30.5936 -7.47754Z" fill="#FFC85E"/>
<path d="M32.0487 -5.32761L22.306 13.8553H19.7585L30.5932 -7.47754L32.0487 -5.32761Z" fill="#FFE177"/>
<path d="M8.92329 -7.47754L4.69478 -1.23027L13.6735 13.855H19.7585L8.92329 -7.47754Z" fill="#FFC85E"/>
<path d="M16.2208 13.8553H13.6732L4.69478 -1.23001L8.92372 -7.47754L10.0158 -5.32761L7.24233 -1.23001L16.2208 13.8553Z" fill="#FFE177"/>
<path d="M20.6598 32.2399C23.7576 31.7243 25.8618 28.7281 25.3596 25.5476C24.8574 22.3672 21.9391 20.2069 18.8412 20.7225C15.7434 21.2381 13.6392 24.2343 14.1414 27.4147C14.6436 30.5951 17.562 32.7554 20.6598 32.2399Z" fill="#FFC85E"/>
<path d="M21.0506 32.1627C20.6354 32.2617 20.203 32.3148 19.7585 32.3148C16.6246 32.3148 14.0756 29.6978 14.0756 26.4803C14.0756 23.2628 16.6246 20.6459 19.7585 20.6459C20.203 20.6459 20.6354 20.6989 21.0506 20.798C18.5369 21.4003 16.6599 23.7192 16.6599 26.4803C16.6599 29.2415 18.5369 31.5604 21.0506 32.1627Z" fill="#FFAE45"/>
<path d="M35.3452 -1.00826L31.1167 -7.25553C30.9997 -7.4285 30.7981 -7.53625 30.5932 -7.53625L29.543 -6.22851H9.97401L8.92374 -7.53625C8.71926 -7.53625 8.51698 -7.42797 8.40031 -7.25553L4.17188 -1.00826C4.02777 -0.795442 4.01979 -0.515324 4.15141 -0.29414L12.538 13.7963H11.4411C11.0893 13.7963 10.8042 14.089 10.8042 14.4502V17.7032C10.8042 18.0644 11.0893 18.3571 11.4411 18.3571H14.936C12.3888 19.8422 10.548 22.5749 10.1055 25.5495C10.0524 25.9065 10.2912 26.2401 10.6389 26.2946C10.9868 26.3494 11.3116 26.1038 11.3646 25.7469C11.9913 21.5339 15.5999 18.3571 19.7585 18.3571C24.441 18.3571 28.2503 22.268 28.2503 27.0754C28.2503 31.8827 24.441 35.7937 19.7585 35.7937C15.5978 35.7937 11.989 32.6146 11.3639 28.3989C11.311 28.042 10.986 27.7973 10.6384 27.8509C10.2907 27.9053 10.0517 28.2388 10.1046 28.5958C10.4524 30.9411 11.6105 33.0928 13.3657 34.6545C15.1389 36.2324 17.4093 37.1014 19.7585 37.1014C25.1433 37.1014 29.5241 32.6037 29.5241 27.0754C29.5241 23.3446 27.5288 20.0836 24.5764 18.3571H28.076C28.4278 18.3571 28.7129 18.0644 28.7129 17.7032V14.4502C28.7129 14.089 28.4278 13.7963 28.076 13.7963H26.9791L35.3657 -0.29414C35.4973 -0.515324 35.4892 -0.795442 35.3452 -1.00826ZM29.543 -6.22851L27.0343 -1.28872L25.9309 0.883582C29.1564 0.885325 26.087 0.796112 26.087 0.796112L26.37 0.0190212L19.7585 13.036L13.147 0.0190212L12.4828 -1.28872L9.97401 -6.22851H29.543ZM5.45482 -0.612183L8.84545 -5.62154L18.7081 13.7964H14.0307L5.45482 -0.612183ZM27.439 17.0493H12.078V15.104H27.439V17.0493ZM25.4863 13.7964H20.8088L30.6715 -5.62154L34.0622 -0.612183L25.4863 13.7964Z" fill="black"/>
<path d="M20.9906 32.0996C20.6494 32.1877 20.4426 32.5431 20.5284 32.8933C20.7222 33.2891 20.98 33.4472 21.3015 33.3677C24.114 32.6405 26.0781 30.053 26.0781 27.0754C26.0781 23.4978 23.2431 20.5872 19.7585 20.5872C16.2739 20.5872 13.4389 23.4978 13.4389 27.0754C13.4389 30.053 15.403 32.6405 18.2154 33.3677C18.5565 33.4556 18.9027 33.2435 18.9885 32.8933C19.0745 32.5431 18.8675 32.1877 18.5265 32.0996C16.281 31.519 14.7126 29.453 14.7126 27.0754C14.7126 24.2188 16.9762 21.895 19.7585 21.895C22.5408 21.895 24.8043 24.2188 24.8043 27.0754C24.8043 29.4529 23.236 31.519 20.9906 32.0996Z" fill="black"/>
</g>
<defs>
<clipPath id="clip0">
<rect width="40" height="37.1014" fill="white"/>
</clipPath>
</defs>
</svg>
