<svg width="69" height="64" viewBox="0 0 69 64" fill="none" xmlns="http://www.w3.org/2000/svg">
<g clip-path="url(#clip0)">
<path d="M34.0834 61.8455C42.7802 61.8455 49.8304 54.6073 49.8304 45.6785C49.8304 36.7497 42.7802 29.5115 34.0834 29.5115C25.3865 29.5115 18.3363 36.7497 18.3363 45.6785C18.3363 54.6073 25.3865 61.8455 34.0834 61.8455Z" fill="#FFE177"/>
<path d="M36.2806 61.6876C35.5629 61.7928 34.829 61.8455 34.0834 61.8455C25.3866 61.8455 18.3363 54.6072 18.3363 45.6785C18.3363 36.7498 25.3866 29.5115 34.0834 29.5115C34.829 29.5115 35.5629 29.5641 36.2806 29.6694C28.6239 30.7657 22.7308 37.5153 22.7308 45.6785C22.7308 53.8417 28.6239 60.5912 36.2806 61.6876Z" fill="#FFC85E"/>
<path d="M19.7358 23.8999H48.431V29.5114H19.7358V23.8999Z" fill="#FFC85E"/>
<path d="M52.774 -12.8987L34.0834 23.8999H44.58L60.0682 -2.12214L52.774 -12.8987Z" fill="#FFC85E"/>
<path d="M55.2841 -9.19005L38.4779 23.9004H34.0834L52.7733 -12.8987L55.2841 -9.19005Z" fill="#FFE177"/>
<path d="M15.3927 -12.8987L8.09851 -2.12214L23.5867 23.8999H34.0834L15.3927 -12.8987Z" fill="#FFC85E"/>
<path d="M27.9808 23.9004H23.5863L8.09851 -2.12169L15.3934 -12.8987L17.2772 -9.19005L12.493 -2.12169L27.9808 23.9004Z" fill="#FFE177"/>
<path d="M35.6381 55.6139C40.9819 54.7245 44.6116 49.556 43.7453 44.0698C42.8791 38.5835 37.8449 34.857 32.5011 35.7464C27.1574 36.6357 23.5276 41.8042 24.3939 47.2904C25.2601 52.7767 30.2944 56.5032 35.6381 55.6139Z" fill="#FFC85E"/>
<path d="M36.3123 55.4806C35.596 55.6514 34.8501 55.743 34.0834 55.743C28.6774 55.743 24.2804 51.2287 24.2804 45.6786C24.2804 40.1284 28.6774 35.6141 34.0834 35.6141C34.8501 35.6141 35.5962 35.7056 36.3123 35.8766C31.9762 36.9155 28.7384 40.9156 28.7384 45.6786C28.7384 50.4416 31.9762 54.4417 36.3123 55.4806Z" fill="#FFAE45"/>
<path d="M36.7195 48.4087H35.8671V42.3146C35.8671 41.5884 35.294 41 34.5866 41H32.2805C31.5733 41 31 41.5884 31 42.3146C31 43.0408 31.5733 43.6292 32.2805 43.6292H33.3062V48.4087H32.4537C31.7466 48.4087 31.1733 48.9972 31.1733 49.7233C31.1733 50.4495 31.7466 51.0379 32.4537 51.0379H36.7195C37.4269 51.0379 38 50.4495 38 49.7233C38 48.9972 37.4269 48.4087 36.7195 48.4087V48.4087Z" fill="#020202"/>
<path d="M60.9705 -1.7392L53.6763 -12.5157C53.4746 -12.8141 53.1267 -13 52.7734 -13L50.9616 -10.7441H17.2052L15.3935 -13C15.0407 -13 14.6918 -12.8132 14.4905 -12.5157L7.19649 -1.7392C6.94791 -1.3721 6.93414 -0.888894 7.16119 -0.507353L21.628 23.7986H19.7358C19.1291 23.7986 18.6372 24.3035 18.6372 24.9266V30.5381C18.6372 31.1612 19.1291 31.666 19.7358 31.666H25.7646C21.3708 34.2278 18.1953 38.9418 17.4319 44.0729C17.3404 44.6888 17.7523 45.2642 18.3522 45.3582C18.9523 45.4528 19.5125 45.0291 19.604 44.4134C20.6851 37.1461 26.9098 31.666 34.0834 31.666C42.1607 31.666 48.7318 38.4124 48.7318 46.7051C48.7318 54.9978 42.1607 61.7441 34.0834 61.7441C26.9063 61.7441 20.681 56.2603 19.6027 48.9882C19.5114 48.3725 18.9508 47.9503 18.3513 48.0428C17.7514 48.1366 17.3392 48.7119 17.4305 49.3277C18.0303 53.3734 20.0281 57.0852 23.0558 59.7791C26.1147 62.5009 30.0311 64 34.0834 64C43.3721 64 50.9291 56.2415 50.9291 46.7051C50.9291 40.2694 47.4872 34.6442 42.3943 31.666H48.4311C49.038 31.666 49.5297 31.1612 49.5297 30.5381V24.9266C49.5297 24.3035 49.038 23.7986 48.4311 23.7986H46.539L61.0058 -0.507353C61.2328 -0.888894 61.2189 -1.3721 60.9705 -1.7392ZM50.9616 -10.7441L46.6342 -2.22301L44.7308 1.52422C50.2948 1.52723 45 1.37333 45 1.37333L45.4882 0.0328512L34.0834 22.4872L22.6786 0.0328512L21.5328 -2.22301L17.2052 -10.7441H50.9616ZM9.40957 -1.05598L15.2584 -9.69712L32.2714 23.7988H24.203L9.40957 -1.05598ZM47.3323 29.4102H20.8345V26.0545H47.3323V29.4102ZM43.9639 23.7988H35.8953L52.9084 -9.69712L58.7572 -1.05598L43.9639 23.7988Z" fill="black"/>
<path d="M36.2087 55.3718C35.6201 55.5239 35.2634 56.1369 35.4115 56.741C35.7458 57.4238 36.1904 57.6966 36.7451 57.5594C41.5966 56.305 44.9847 51.8416 44.9847 46.7051C44.9847 40.5339 40.0944 35.5131 34.0834 35.5131C28.0724 35.5131 23.182 40.5339 23.182 46.7051C23.182 51.8416 26.5702 56.305 31.4216 57.5594C32.0099 57.711 32.6071 57.3451 32.7552 56.741C32.9034 56.1369 32.5465 55.5239 31.9582 55.3718C28.0847 54.3704 25.3793 50.8066 25.3793 46.7051C25.3793 41.7776 29.284 37.7689 34.0834 37.7689C38.8829 37.7689 42.7875 41.7776 42.7875 46.7051C42.7875 50.8064 40.0821 54.3704 36.2087 55.3718Z" fill="black"/>
</g>
<defs>
<clipPath id="clip0">
<rect width="69" height="64" fill="white"/>
</clipPath>
</defs>
</svg>
