<svg width="13" height="15" viewBox="0 0 13 15" fill="none" xmlns="http://www.w3.org/2000/svg">
<path d="M1.83847 8.68669L1.8385 8.68671L10.1704 14.3907L10.1705 14.3908C10.5294 14.6366 10.8683 14.7501 11.1239 14.7501C11.3609 14.7501 11.5378 14.6589 11.6626 14.4944C11.7935 14.3218 11.8823 14.0471 11.8823 13.6632L11.8823 1.33515C11.8823 0.951728 11.7936 0.677416 11.663 0.505238C11.5385 0.341111 11.3621 0.250122 11.1259 0.250122C10.8706 0.250122 10.5381 0.36304 10.1773 0.610297L10.1772 0.610412L1.84152 6.31418L1.83847 8.68669ZM1.83847 8.68669C1.35295 8.35441 1.11714 7.93032 1.11724 7.50085V7.50079M1.83847 8.68669L1.11724 7.50079M1.11724 7.50079C1.11724 7.07176 1.35561 6.64728 1.84136 6.31429L1.11724 7.50079Z" fill="#B8CCF5"/>
<path d="M1.83847 8.68669L1.8385 8.68671L10.1704 14.3907L10.1705 14.3908C10.5294 14.6366 10.8683 14.7501 11.1239 14.7501C11.3609 14.7501 11.5378 14.6589 11.6626 14.4944C11.7935 14.3218 11.8823 14.0471 11.8823 13.6632L11.8823 1.33515C11.8823 0.951728 11.7936 0.677416 11.663 0.505238C11.5385 0.341111 11.3621 0.250122 11.1259 0.250122C10.8706 0.250122 10.5381 0.36304 10.1773 0.610297L10.1772 0.610412L1.84152 6.31418L1.83847 8.68669ZM1.83847 8.68669C1.35295 8.35441 1.11714 7.93032 1.11724 7.50085V7.50079M1.83847 8.68669L1.11724 7.50079M1.11724 7.50079C1.11724 7.07176 1.35561 6.64728 1.84136 6.31429L1.11724 7.50079Z" fill="url(#paint0_linear)"/>
<path d="M1.83847 8.68669L1.8385 8.68671L10.1704 14.3907L10.1705 14.3908C10.5294 14.6366 10.8683 14.7501 11.1239 14.7501C11.3609 14.7501 11.5378 14.6589 11.6626 14.4944C11.7935 14.3218 11.8823 14.0471 11.8823 13.6632L11.8823 1.33515C11.8823 0.951728 11.7936 0.677416 11.663 0.505238C11.5385 0.341111 11.3621 0.250122 11.1259 0.250122C10.8706 0.250122 10.5381 0.36304 10.1773 0.610297L10.1772 0.610412L1.84152 6.31418L1.83847 8.68669ZM1.83847 8.68669C1.35295 8.35441 1.11714 7.93032 1.11724 7.50085V7.50079M1.83847 8.68669L1.11724 7.50079M1.11724 7.50079C1.11724 7.07176 1.35561 6.64728 1.84136 6.31429L1.11724 7.50079Z" stroke="#2F2F2F" stroke-width="0.5"/>
<defs>
<linearGradient id="paint0_linear" x1="11.5" y1="8" x2="10.5" y2="8" gradientUnits="userSpaceOnUse">
<stop stop-color="white"/>
<stop offset="1" stop-color="white" stop-opacity="0"/>
</linearGradient>
</defs>
</svg>
