<svg width="44" height="44" fill="none" xmlns="http://www.w3.org/2000/svg"><g clip-path="url(#clip0)"><path d="M3.699 22.142a7.031 7.031 0 007.031 7.031h8.311c4.017 0 7.031-3.386 7.031-7.031 0-.61-.089-1.197-.24-1.758h-1.518c-.995 0-1.401.757-1.812 1.186.032.186.055.376.055.572 0 1.87-1.561 3.516-3.516 3.516h-8.31a3.52 3.52 0 01-3.516-3.516 3.52 3.52 0 013.515-3.516h5.494c.36-.518.924-2.036 2.886-3.508-.023 0-.045-.007-.069-.007h-8.31a7.031 7.031 0 00-7.032 7.031z"/><path d="M17.283 22.142c0 .61.09 1.197.241 1.758h1.517c.995 0 1.401-.757 1.812-1.185a3.383 3.383 0 01-.054-.573c0-1.87 1.56-3.516 3.515-3.516h8.955a3.52 3.52 0 013.516 3.516 3.52 3.52 0 01-3.516 3.516h-6.137c-.36.518-.925 2.036-2.887 3.508.024 0 .046.007.07.007h8.954a7.031 7.031 0 000-14.062h-8.954c-3.943 0-7.032 3.304-7.032 7.031z"/></g><defs><clipPath id="clip0"><path fill="#fff" transform="rotate(-135 19.98 17.121)" d="M0 0h30v30H0z"/></clipPath></defs></svg>