<svg width="25" height="25" xmlns="http://www.w3.org/2000/svg" viewBox="0 0 512 512"><path d="M512 256c0 141.385-114.615 256-256 256S0 397.385 0 256 114.615 0 256 0s256 114.615 256 256z" fill="#3c5d78"/><path d="M275 80H70.108a257.463 257.463 0 0133.9-30H275c8.284 0 15 6.716 15 15s-6.716 15-15 15zm55 385c0 8.284 6.716 15 15 15h34.996a256.584 256.584 0 0043.032-30H345c-8.284 0-15 6.716-15 15zm140-290c0-8.284-6.716-15-15-15h-45c-8.284 0-15-6.716-15-15s6.716-15 15-15h68.88a256.214 256.214 0 00-19.909-30H255c-8.284 0-15 6.716-15 15s6.716 15 15 15h75c8.284 0 15 6.716 15 15s-6.715 15-14.999 15H205c-8.284 0-15 6.716-15 15s6.716 15 15 15h250c8.284 0 15-6.716 15-15zm41.924 75h-226.5c-8.077 0-15.027 6.207-15.407 14.274C269.611 272.889 276.475 280 285 280h120c8.284 0 15 6.716 15 15s6.716 15 15 15h71.275A256.936 256.936 0 00512 256c0-2.006-.03-4.005-.076-6z" fill="#384e64"/><path d="M283.511 27.528l6.423 11.744a2 2 0 00.795.795l11.744 6.423c1.387.759 1.387 2.751 0 3.509l-11.744 6.423a1.994 1.994 0 00-.795.795l-6.423 11.744c-.759 1.387-2.751 1.387-3.509 0l-6.423-11.744a2 2 0 00-.795-.795l-11.744-6.423c-1.387-.759-1.387-2.751 0-3.509l11.744-6.423c.336-.184.612-.459.795-.795l6.423-11.744c.758-1.388 2.75-1.388 3.509 0z" fill="#40718c"/><path d="M281.04 190.001l11.744-6.422c.335-.184.611-.459.795-.795l6.423-11.744c.759-1.387 2.751-1.387 3.509 0l6.423 11.744c.184.336.459.612.795.795l11.744 6.422c1.387.759 1.387 2.751 0 3.51l-11.744 6.423a1.994 1.994 0 00-.795.795l-6.423 11.744c-.759 1.387-2.751 1.387-3.509 0l-6.423-11.744a1.994 1.994 0 00-.795-.795l-11.744-6.423c-1.387-.759-1.387-2.751 0-3.51zM201.593 70C123.394 92.522 66.19 164.602 66.19 250.048c0 103.472 83.88 187.352 187.352 187.352 66.558 0 125.004-34.711 158.238-87.015C292.054 312.312 204.718 201.587 201.593 70z" fill="#fff4a5"/><path d="M140 275c0-13.807 11.193-25 25-25s25 11.193 25 25-11.193 25-25 25-25-11.193-25-25zm100 45c11.046 0 20-8.954 20-20s-8.954-20-20-20-20 8.954-20 20 8.954 20 20 20zm-80-130c11.046 0 20-8.954 20-20s-8.954-20-20-20-20 8.954-20 20 8.954 20 20 20zm288.96-59.999l-11.744-6.422a2.007 2.007 0 01-.795-.795l-6.423-11.744c-.759-1.387-2.751-1.387-3.509 0l-6.423 11.744a1.994 1.994 0 01-.795.795l-11.744 6.422c-1.387.759-1.387 2.751 0 3.51l11.744 6.422c.336.184.611.46.795.795l6.423 11.744c.759 1.387 2.751 1.387 3.509 0l6.423-11.744c.183-.335.459-.612.795-.795l11.744-6.422c1.387-.759 1.387-2.751 0-3.51zM360 380c0-16.568-13.431-30-30-30s-30 13.432-30 30c0 12.449 7.583 23.125 18.381 27.666a187.887 187.887 0 01-39.234 4.13c-103.471 0-187.352-83.88-187.352-187.352 0-45.205 16.014-86.666 42.674-119.029-41.692 34.36-68.279 86.389-68.279 144.634 0 103.472 83.88 187.352 187.352 187.352 58.281 0 110.341-26.616 144.701-68.353a187.507 187.507 0 01-42.535 26.417A29.844 29.844 0 00360 380z" fill="#ffe473"/><path d="M431.04 256.489l11.744-6.423a2 2 0 00.795-.795l6.423-11.744c.759-1.387 2.751-1.387 3.509 0l6.423 11.744a2 2 0 00.795.795l11.744 6.423c1.387.759 1.387 2.751 0 3.509l-11.744 6.423a2 2 0 00-.795.795l-6.423 11.743c-.759 1.387-2.751 1.387-3.509 0l-6.423-11.743a1.988 1.988 0 00-.795-.795l-11.744-6.423c-1.387-.758-1.387-2.75 0-3.509zM470 370H59.998C51.714 369.999 45 363.283 45 355c0-8.284 6.716-15 15-15h155c8.284 0 15-6.716 15-15s-6.716-15-15-15H5.725c7.037 32.768 20.335 63.208 38.597 90H130c8.284 0 15 6.716 15 15s-6.715 15-14.999 15H68.246a257.497 257.497 0 0033.096 30H255c8.284 0 15-6.716 15-15s-6.716-15-15-15h-45c-8.284 0-15-6.716-15-15s6.716-15 15-15h260c8.284 0 15-6.716 15-15s-6.716-15-15-15z" fill="#6599aa"/></svg>