<svg xmlns="http://www.w3.org/2000/svg" viewBox="0 0 384 384"><path fill="#ffa726" d="M144 55.999v272l224-136z"/><g fill="#6d6d6c"><path d="M376.304 178.327l-224-136a16.007 16.007 0 00-16.152-.272A16 16 0 00128 55.999v136c0 8.832 7.168 16 16 16s16-7.168 16-16V84.431l177.168 107.568L160 299.567v-43.568c0-8.832-7.168-16-16-16s-16 7.168-16 16v72a16 16 0 0016 16c2.88 0 5.752-.776 8.304-2.328l224-136c4.776-2.896 7.696-8.08 7.696-13.672s-2.92-10.776-7.696-13.672zM16 311.999h72c8.832 0 16-7.168 16-16s-7.168-16-16-16H16c-8.832 0-16 7.168-16 16s7.168 16 16 16zM16 103.999h40c8.832 0 16-7.168 16-16s-7.168-16-16-16H16c-8.832 0-16 7.168-16 16s7.168 16 16 16zM104 151.999c0-8.832-7.168-16-16-16h-8c-8.832 0-16 7.168-16 16s7.168 16 16 16h8c8.832 0 16-7.168 16-16zM48 207.999c-8.832 0-16 7.168-16 16s7.168 16 16 16h24c8.832 0 16-7.168 16-16s-7.168-16-16-16H48z"/></g></svg>