<svg width="13" height="15" viewBox="0 0 13 15" fill="none" xmlns="http://www.w3.org/2000/svg">
<path d="M11.161 6.31355L11.161 6.31353L2.8291 0.60953L2.82903 0.609484C2.47011 0.363598 2.13121 0.250122 1.87559 0.250122C1.63864 0.250122 1.46172 0.341378 1.33692 0.505859C1.20601 0.678398 1.11719 0.953187 1.11719 1.33709L1.11719 13.6651C1.11719 14.0485 1.20589 14.3228 1.33651 14.495C1.46102 14.6591 1.63746 14.7501 1.87365 14.7501C2.1289 14.7501 2.46146 14.6372 2.82218 14.3899L2.82234 14.3898L11.158 8.68606L11.161 6.31355ZM11.161 6.31355C11.6466 6.64583 11.8824 7.06992 11.8823 7.4994V7.49945M11.161 6.31355L11.8823 7.49945M11.8823 7.49945C11.8823 7.92848 11.6439 8.35297 11.1581 8.68595L11.8823 7.49945Z" fill="#B8CCF5"/>
<path d="M11.161 6.31355L11.161 6.31353L2.8291 0.60953L2.82903 0.609484C2.47011 0.363598 2.13121 0.250122 1.87559 0.250122C1.63864 0.250122 1.46172 0.341378 1.33692 0.505859C1.20601 0.678398 1.11719 0.953187 1.11719 1.33709L1.11719 13.6651C1.11719 14.0485 1.20589 14.3228 1.33651 14.495C1.46102 14.6591 1.63746 14.7501 1.87365 14.7501C2.1289 14.7501 2.46146 14.6372 2.82218 14.3899L2.82234 14.3898L11.158 8.68606L11.161 6.31355ZM11.161 6.31355C11.6466 6.64583 11.8824 7.06992 11.8823 7.4994V7.49945M11.161 6.31355L11.8823 7.49945M11.8823 7.49945C11.8823 7.92848 11.6439 8.35297 11.1581 8.68595L11.8823 7.49945Z" fill="url(#paint0_linear)"/>
<path d="M11.161 6.31355L11.161 6.31353L2.8291 0.60953L2.82903 0.609484C2.47011 0.363598 2.13121 0.250122 1.87559 0.250122C1.63864 0.250122 1.46172 0.341378 1.33692 0.505859C1.20601 0.678398 1.11719 0.953187 1.11719 1.33709L1.11719 13.6651C1.11719 14.0485 1.20589 14.3228 1.33651 14.495C1.46102 14.6591 1.63746 14.7501 1.87365 14.7501C2.1289 14.7501 2.46146 14.6372 2.82218 14.3899L2.82234 14.3898L11.158 8.68606L11.161 6.31355ZM11.161 6.31355C11.6466 6.64583 11.8824 7.06992 11.8823 7.4994V7.49945M11.161 6.31355L11.8823 7.49945M11.8823 7.49945C11.8823 7.92848 11.6439 8.35297 11.1581 8.68595L11.8823 7.49945Z" stroke="#2F2F2F" stroke-width="0.5"/>
<defs>
<linearGradient id="paint0_linear" x1="1.49951" y1="7.00024" x2="2.49951" y2="7.00024" gradientUnits="userSpaceOnUse">
<stop stop-color="white"/>
<stop offset="1" stop-color="white" stop-opacity="0"/>
</linearGradient>
</defs>
</svg>