<svg xmlns="http://www.w3.org/2000/svg" viewBox="0 0 512.004 512.004"><path d="M502 286.856v-61.707l-47.511-11.836a201.82 201.82 0 00-27.957-67.465l25.223-41.96-43.64-43.64-41.96 25.223a201.84 201.84 0 00-67.465-27.957l-11.836-47.512h-61.707L213.31 57.513a201.82 201.82 0 00-67.465 27.957l-41.96-25.223-43.64 43.64 25.223 41.96a201.84 201.84 0 00-27.957 67.465L10 225.148v61.707l47.511 11.836a201.82 201.82 0 0027.957 67.465l-25.223 41.96 43.64 43.64 41.96-25.223a201.84 201.84 0 0067.465 27.957l11.836 47.512h61.707l11.836-47.511a201.82 201.82 0 0067.465-27.957l41.96 25.223 43.64-43.64-25.223-41.96a201.84 201.84 0 0027.957-67.465L502 286.856z" fill="#c8f5ff"/><circle cx="256" cy="256.002" r="140" fill="#4bb9f5"/><circle cx="256" cy="256.002" r="62" fill="#fff"/><path d="M504.417 215.445l-41.556-10.353a210.957 210.957 0 00-24.596-59.354l22.061-36.7a10 10 0 00-1.5-12.223l-43.641-43.641a10 10 0 00-12.223-1.5l-36.7 22.061a210.945 210.945 0 00-59.354-24.596L296.557 7.585a10 10 0 00-9.703-7.583h-61.707a10.001 10.001 0 00-9.704 7.583l-10.352 41.556a210.989 210.989 0 00-59.354 24.597l-36.7-22.062a9.998 9.998 0 00-12.223 1.5l-43.641 43.64a10 10 0 00-1.5 12.223l22.061 36.7a210.945 210.945 0 00-24.596 59.354L7.583 215.445A10 10 0 000 225.148v61.707c0 4.592 3.127 8.593 7.583 9.704l41.556 10.352a210.93 210.93 0 0024.597 59.354l-22.062 36.7a10 10 0 001.5 12.223l43.641 43.641a10 10 0 0012.223 1.5l36.7-22.062a211.001 211.001 0 0059.354 24.597l10.352 41.556a10 10 0 009.704 7.583h61.707c4.592 0 8.593-3.127 9.704-7.583l10.353-41.556a210.954 210.954 0 0059.354-24.597l36.7 22.062a10 10 0 0012.223-1.5l43.641-43.641a10 10 0 001.5-12.223l-22.061-36.7a210.957 210.957 0 0024.596-59.354l41.556-10.352a10 10 0 007.583-9.704v-61.707a10.008 10.008 0 00-7.587-9.703zM492 279.041l-39.929 9.947a9.998 9.998 0 00-7.361 7.61c-4.896 22.874-13.837 44.448-26.573 64.125a10 10 0 00-.176 10.585l21.197 35.263-32.589 32.589-35.263-21.197a9.997 9.997 0 00-10.585.176c-19.678 12.737-41.253 21.677-64.125 26.573a9.998 9.998 0 00-7.61 7.361l-9.947 39.929h-46.078l-9.947-39.929a9.998 9.998 0 00-7.61-7.361c-22.873-4.896-44.447-13.836-64.125-26.573a9.997 9.997 0 00-10.585-.176l-35.263 21.197-32.59-32.588 21.198-35.263a10 10 0 00-.176-10.585c-12.737-19.678-21.678-41.252-26.574-64.125a9.998 9.998 0 00-7.361-7.61L20 279.041v-46.078l39.929-9.947a9.998 9.998 0 007.361-7.61c4.896-22.874 13.837-44.448 26.573-64.125a10 10 0 00.176-10.585l-21.198-35.264 32.589-32.589 35.263 21.197a9.999 9.999 0 0010.586-.176c19.676-12.736 41.25-21.677 64.125-26.573a9.998 9.998 0 007.61-7.361l9.947-39.928h46.078l9.947 39.929a9.998 9.998 0 007.61 7.361c22.874 4.896 44.448 13.837 64.125 26.573a10 10 0 0010.585.176l35.263-21.197 32.589 32.589-21.197 35.263a10 10 0 00.176 10.585c12.736 19.677 21.677 41.251 26.573 64.125a9.998 9.998 0 007.361 7.61L492 232.963v46.078z"/><path d="M256 106.002c-23.322 0-45.674 5.208-66.436 15.48-4.95 2.449-6.978 8.447-4.528 13.397 2.449 4.95 8.446 6.979 13.397 4.528 17.98-8.895 37.349-13.405 57.567-13.405 71.682 0 130 58.318 130 130s-58.318 130-130 130-130-58.318-130-130c0-23.303 6.234-46.158 18.03-66.094 2.813-4.753 1.239-10.886-3.514-13.699-4.752-2.811-10.886-1.239-13.699 3.514C113.198 202.741 106 229.118 106 256.002c0 82.71 67.29 150 150 150s150-67.29 150-150-67.29-150-150-150z"/><path d="M256 184.002c-39.701 0-72 32.299-72 72s32.299 72 72 72 72-32.299 72-72-32.299-72-72-72zm0 124c-28.673 0-52-23.327-52-52s23.327-52 52-52 52 23.327 52 52-23.327 52-52 52zM160.59 163.562c2.63 0 5.21-1.07 7.07-2.93 1.86-1.86 2.93-4.44 2.93-7.07s-1.07-5.21-2.93-7.07c-1.86-1.86-4.44-2.93-7.07-2.93s-5.21 1.07-7.07 2.93c-1.86 1.86-2.93 4.44-2.93 7.07s1.07 5.21 2.93 7.07c1.86 1.86 4.44 2.93 7.07 2.93z"/></svg>