<svg width="40" height="38" viewBox="0 0 40 38" fill="none" xmlns="http://www.w3.org/2000/svg">
<g clip-path="url(#clip0)">
<path d="M19.6811 36.5018C24.6979 36.5018 28.7649 32.3558 28.7649 27.2416C28.7649 22.1273 24.6979 17.9814 19.6811 17.9814C14.6643 17.9814 10.5974 22.1273 10.5974 27.2416C10.5974 32.3558 14.6643 36.5018 19.6811 36.5018Z" fill="#DCDCDC"/>
<path d="M20.9486 36.4113C20.5346 36.4716 20.1112 36.5018 19.6811 36.5018C14.6644 36.5018 10.5974 32.3558 10.5974 27.2416C10.5974 22.1274 14.6644 17.9814 19.6811 17.9814C20.1112 17.9814 20.5346 18.0115 20.9486 18.0718C16.5318 18.6998 13.1324 22.5658 13.1324 27.2416C13.1324 31.9173 16.5318 35.7833 20.9486 36.4113Z" fill="#CACACA"/>
<path d="M11.4047 14.7672H27.9575V17.9814H11.4047V14.7672Z" fill="#CACACA"/>
<path d="M30.4629 -6.31055L19.6812 14.7671H25.7362L34.6706 -0.137926L30.4629 -6.31055Z" fill="#CACACA"/>
<path d="M31.9108 -4.1863L22.2162 14.7674H19.6812L30.4625 -6.31055L31.9108 -4.1863Z" fill="#DCDCDC"/>
<path d="M8.89939 -6.31055L4.69171 -0.137926L13.6262 14.7671H19.6812L8.89939 -6.31055Z" fill="#CACACA"/>
<path d="M16.1609 14.7674H13.6259L4.69171 -0.137663L8.89981 -6.31055L9.98648 -4.1863L7.22671 -0.137663L16.1609 14.7674Z" fill="#DCDCDC"/>
<path d="M20.578 32.9323C23.6605 32.4228 25.7544 29.4624 25.2546 26.32C24.7549 23.1776 21.8509 21.0431 18.7684 21.5525C15.6858 22.0619 13.592 25.0223 14.0917 28.1647C14.5914 31.3072 17.4954 33.4417 20.578 32.9323Z" fill="#CACACA"/>
<path d="M20.9669 32.8559C20.5537 32.9537 20.1235 33.0062 19.6812 33.0062C16.5627 33.0062 14.0263 30.4205 14.0263 27.2414C14.0263 24.0624 16.5627 21.4767 19.6812 21.4767C20.1235 21.4767 20.5538 21.5291 20.9669 21.627C18.4657 22.2221 16.5979 24.5133 16.5979 27.2414C16.5979 29.9696 18.4657 32.2608 20.9669 32.8559Z" fill="#BDBDBC"/>
<path d="M35.191 -0.506541L30.9834 -6.67917C30.867 -6.85007 30.6663 -6.95654 30.4625 -6.95654L29.4174 -5.66442H9.94488L8.89978 -6.95654C8.89978 -6.95654 8.49503 -6.84956 8.37892 -6.67917L4.17133 -0.506541C4.02793 -0.29627 4.01999 -0.0194979 4.15096 0.199043L12.4962 14.1211H11.4047C11.0547 14.1211 10.771 14.4103 10.771 14.7672V17.9814C10.771 18.3382 11.0547 18.6274 11.4047 18.6274H14.8824C12.3478 20.0948 10.516 22.7949 10.0757 25.7339C10.0229 26.0867 10.2605 26.4162 10.6065 26.4701C10.9527 26.5243 11.2758 26.2816 11.3287 25.9289C11.9523 21.7663 15.543 18.6274 19.6811 18.6274C24.3406 18.6274 28.1311 22.4916 28.1311 27.2416C28.1311 31.9915 24.3406 35.8557 19.6811 35.8557C15.541 35.8557 11.9499 32.7146 11.3279 28.5493C11.2752 28.1966 10.9519 27.9548 10.606 28.0078C10.26 28.0615 10.0222 28.391 10.0748 28.7438C10.4209 31.0611 11.5733 33.1871 13.3198 34.7302C15.0843 36.2891 17.3435 37.1478 19.6811 37.1478C25.0394 37.1478 29.3986 32.7039 29.3986 27.2416C29.3986 23.5553 27.4131 20.3333 24.4753 18.6274H27.9577C28.3078 18.6274 28.5914 18.3382 28.5914 17.9814V14.7672C28.5914 14.4103 28.3078 14.1211 27.9577 14.1211H26.8662L35.2114 0.199043C35.3424 -0.0194979 35.3344 -0.29627 35.191 -0.506541ZM29.4174 -5.66442L26.9211 -0.783657L26.2601 0.508462L19.6811 13.37L13.1022 0.508462L12.4413 -0.783657L9.94488 -5.66442H29.4174ZM5.44796 -0.115201L8.82187 -5.06471L18.6359 14.1212H13.9816L5.44796 -0.115201ZM27.3238 17.3353H12.0385V15.4132H27.3238V17.3353ZM25.3808 14.1212H20.7263L30.5404 -5.06471L33.9143 -0.115201L25.3808 14.1212Z" fill="black"/>
<path d="M20.9071 32.2059C20.5676 32.293 20.3619 32.6441 20.4473 32.9901C20.6401 33.3812 20.8966 33.5375 21.2166 33.4589C24.0151 32.7404 25.9696 30.1838 25.9696 27.2417C25.9696 23.7069 23.1486 20.8311 19.6811 20.8311C16.2137 20.8311 13.3926 23.7069 13.3926 27.2417C13.3926 30.1838 15.3471 32.7404 18.1457 33.4589C18.485 33.5457 18.8295 33.3362 18.915 32.9901C19.0005 32.6441 18.7946 32.293 18.4552 32.2059C16.2208 31.6323 14.6601 29.591 14.6601 27.2417C14.6601 24.4193 16.9126 22.1232 19.6811 22.1232C22.4498 22.1232 24.7021 24.4193 24.7021 27.2417C24.7021 29.5909 23.1415 31.6323 20.9071 32.2059Z" fill="black"/>
</g>
<defs>
<clipPath id="clip0">
<rect width="40" height="37.1014" fill="white"/>
</clipPath>
</defs>
</svg>
