<svg width="68" height="81" fill="none" xmlns="http://www.w3.org/2000/svg"><g clip-path="url(#clip0)"><path d="M34 61.674c8.67 0 15.699-7.029 15.699-15.699s-7.029-15.698-15.7-15.698c-8.67 0-15.698 7.028-15.698 15.698 0 8.67 7.029 15.699 15.699 15.699z" fill="#DCDCDC"/><path d="M36.19 61.52a15.49 15.49 0 01-2.19.154c-8.67 0-15.699-7.029-15.699-15.699S25.33 30.277 34 30.277c.743 0 1.475.05 2.19.153-7.633 1.064-13.508 7.618-13.508 15.545s5.875 14.48 13.508 15.545zM19.697 24.828h28.606v5.449H19.697v-5.45z" fill="#CACACA"/><path d="M52.633-10.905L34 24.828h10.464L59.904-.44l-7.271-10.465z" fill="#CACACA"/><path d="M55.135-7.304L38.381 24.828H34l18.632-35.733 2.503 3.601z" fill="#DCDCDC"/><path d="M15.367-10.905L8.095-.44l15.44 25.269H34L15.367-10.905z" fill="#CACACA"/><path d="M27.916 24.828h-4.38L8.095-.44l7.272-10.465 1.878 3.601-4.77 6.864 15.44 25.268z" fill="#DCDCDC"/><path d="M35.55 55.623c5.327-.864 8.946-5.883 8.082-11.21-.863-5.327-5.882-8.946-11.21-8.082-5.327.863-8.945 5.882-8.082 11.21.864 5.327 5.883 8.945 11.21 8.082z" fill="#CACACA"/><path d="M36.222 55.493a9.808 9.808 0 01-2.222.255c-5.39 0-9.773-4.383-9.773-9.773s4.384-9.773 9.773-9.773c.764 0 1.508.09 2.222.255-4.323 1.01-7.55 4.893-7.55 9.518 0 4.625 3.227 8.51 7.55 9.518z" fill="#BDBDBC"/><path d="M60.804-1.065L53.532-11.53a1.114 1.114 0 00-.9-.47l-1.806 2.19H17.174L15.368-12s-.7.181-.9.47L7.195-1.065A1.095 1.095 0 007.16.13l14.422 23.601h-1.886c-.605 0-1.096.49-1.096 1.096v5.449c0 .605.49 1.095 1.096 1.095h6.01c-4.38 2.487-7.546 7.065-8.307 12.047a1.095 1.095 0 102.165.33C20.643 36.694 26.848 31.373 34 31.373c8.052 0 14.603 6.55 14.603 14.603S42.053 60.578 34 60.578c-7.155 0-13.361-5.325-14.436-12.386a1.096 1.096 0 00-2.166.33 16.793 16.793 0 005.608 10.148A16.787 16.787 0 0034 62.77c9.26 0 16.794-7.534 16.794-16.794 0-6.25-3.432-11.711-8.509-14.603h6.018c.605 0 1.096-.49 1.096-1.095v-5.45c0-.604-.49-1.095-1.096-1.095h-1.886L60.84.131c.227-.37.213-.84-.035-1.196zM50.826-9.81l-4.314 8.275L45.37.655 34 22.46 22.63.655l-1.142-2.19-4.314-8.275h33.652zM9.402-.402l5.831-8.39 16.96 32.525H24.15L9.402-.402zM47.208 29.18H20.792v-3.258h26.416v3.258zm-3.358-5.448h-8.044l16.96-32.526 5.832 8.39L43.85 23.734z" fill="#000"/><path d="M36.119 54.39a1.095 1.095 0 00-.795 1.33c.333.663.776.928 1.33.795a10.856 10.856 0 008.214-10.54c0-5.992-4.876-10.868-10.868-10.868s-10.868 4.876-10.868 10.868c0 4.988 3.378 9.322 8.214 10.54a1.096 1.096 0 00.535-2.124 8.668 8.668 0 01-6.558-8.416c0-4.785 3.892-8.677 8.677-8.677s8.677 3.892 8.677 8.677a8.668 8.668 0 01-6.558 8.416z" fill="#000"/><path d="M36.986 49.248V51h-5.643v-1.466c1.671-2.734 2.664-4.425 2.977-5.072.317-.652.476-1.16.476-1.524 0-.279-.049-.486-.146-.622-.093-.14-.237-.21-.432-.21a.485.485 0 00-.438.23c-.093.152-.14.454-.14.907v.978h-2.297v-.375c0-.575.03-1.028.089-1.358a2.39 2.39 0 01.438-.984c.232-.322.535-.565.907-.73.373-.165.82-.248 1.34-.248 1.02 0 1.79.254 2.31.762.525.504.787 1.143.787 1.917 0 .588-.148 1.21-.444 1.866-.292.656-1.157 2.049-2.596 4.177h2.812z" fill="#000"/></g><defs><clipPath id="clip0"><path fill="#fff" d="M0 0h68v81H0z"/></clipPath></defs></svg>