<svg xmlns="http://www.w3.org/2000/svg" viewBox="0 0 11 11" fill="none">
<path d="M2.75 4.32056H0.393515C0.177197 4.32056 0.00230126 4.49545 0 4.71407V10.6053C0 10.8239 0.177197 10.9988 0.393515 10.9988H2.75C2.96862 10.9988 3.14351 10.8216 3.14351 10.6053V4.71407C3.14351 4.49545 2.96632 4.32056 2.75 4.32056Z"/>
<path d="M6.67828 0.00109863H4.3218C4.10548 0.00109863 3.92828 0.175994 3.92828 0.392312V10.6053C3.92828 10.8239 4.10548 10.9988 4.3218 10.9988H6.67828C6.8969 10.9988 7.07179 10.8216 7.07179 10.6053V0.394613C7.07179 0.175994 6.8946 0.00109863 6.67828 0.00109863Z"/>
<path d="M10.6064 3.14233H8.24996C8.03134 3.14233 7.85645 3.31723 7.85645 3.53585V10.6053C7.85645 10.8239 8.03364 10.9988 8.24996 10.9988H10.6064C10.8251 10.9988 11 10.8216 11 10.6053V3.53585C11 3.31723 10.8228 3.14233 10.6064 3.14233Z"/>
</svg>