<svg height="25" viewBox="0 0 497 497" width="25" xmlns="http://www.w3.org/2000/svg"><path d="M272.363 9.19l32.407 29.308 42.719-9.178c17.861-3.837 35.725 6.477 41.332 23.863l13.411 41.585 41.585 13.411c17.387 5.607 27.701 23.471 23.863 41.332l-9.178 42.719 29.308 32.407c12.254 13.549 12.254 34.177 0 47.726l-29.308 32.407 9.178 42.719c3.837 17.861-6.477 35.725-23.863 41.332l-41.585 13.411-13.411 41.585c-5.607 17.387-23.471 27.701-41.332 23.863l-42.719-9.178-32.407 29.308c-13.549 12.254-34.177 12.254-47.726 0l-32.407-29.308-42.719 9.178c-17.861 3.837-35.725-6.477-41.332-23.863l-13.411-41.585-41.585-13.411c-17.387-5.607-27.701-23.471-23.863-41.332l9.178-42.719L9.19 272.363c-12.254-13.549-12.254-34.177 0-47.726l29.308-32.407-9.178-42.719c-3.837-17.861 6.477-35.725 23.863-41.332l41.585-13.411 13.411-41.585c5.607-17.387 23.471-27.701 41.332-23.863l42.719 9.178L224.637 9.19c13.549-12.253 34.177-12.253 47.726 0z" fill="#ffb357"/><path d="M248.5 436.485c-103.655 0-187.985-84.33-187.985-187.985S144.845 60.515 248.5 60.515s187.985 84.33 187.985 187.985-84.33 187.985-187.985 187.985z" fill="#fce3a0"/><path d="M162.515 248.5c0-85.986 58.032-158.669 136.985-180.952-16.224-4.579-33.331-7.034-51-7.034-103.655 0-187.985 84.33-187.985 187.985s84.33 187.985 187.985 187.985c17.669 0 34.776-2.455 51-7.034-78.953-22.281-136.985-94.964-136.985-180.95z" fill="#ffce71"/><ellipse cx="169.331" cy="240.763" fill="#ff8e9e" rx="29.212" ry="23.263" transform="translate(.755 -.529)"/><ellipse cx="327.669" cy="241.259" fill="#ff8e9e" rx="29.212" ry="23.263" transform="rotate(-180 327.652 241.28)"/><g fill="#313d40"><path d="M184 198.5a7.5 7.5 0 00-7.5 7.5v10a7.5 7.5 0 0015 0v-10a7.5 7.5 0 00-7.5-7.5zM312 198.5a7.5 7.5 0 00-7.5 7.5v10a7.5 7.5 0 0015 0v-10a7.5 7.5 0 00-7.5-7.5zM267.735 227.234a7.497 7.497 0 00-10.001 3.531c-1.666 3.484-5.291 5.735-9.234 5.735s-7.568-2.251-9.234-5.735a7.5 7.5 0 00-13.532 6.47c4.144 8.666 13.08 14.265 22.766 14.265s18.623-5.599 22.766-14.265a7.5 7.5 0 00-3.531-10.001z"/></g></svg>