<svg width="21" height="20" viewBox="0 0 21 20" fill="none" xmlns="http://www.w3.org/2000/svg">
<path d="M20.55 8.61222C20.7986 10.5504 20.4663 12.5187 19.5951 14.2679C18.724 16.017 17.3533 17.4681 15.6567 18.4375C13.96 19.4069 12.0138 19.8509 10.0646 19.7132C8.11544 19.5755 6.25094 18.8623 4.70745 17.664C3.16396 16.4657 2.01095 14.8362 1.3944 12.982C0.777857 11.1277 0.725529 9.13224 1.24414 7.24827C1.76274 5.3643 2.82893 3.67663 4.30755 2.39915C5.78617 1.12166 7.61074 0.311831 9.55004 0.0722411C12.1392 -0.242346 14.7477 0.478534 16.8079 2.07798C18.8681 3.67742 20.2131 6.02591 20.55 8.61222Z" fill="#35BC53"/>
</svg>
