<svg width="78" height="77" viewBox="0 0 78 77" fill="none" xmlns="http://www.w3.org/2000/svg">
<path d="M70.91 14.4498C67.455 10.379 63.2213 7.03975 58.4575 4.62825C53.6938 2.21675 48.4961 0.781666 43.1699 0.407242C37.8437 0.0328178 32.4964 0.726642 27.4422 2.44795C22.3879 4.16926 17.7286 6.88335 13.738 10.4307C9.74743 13.9781 6.50607 18.2872 4.20436 23.105C1.90265 27.9227 0.58701 33.1519 0.334732 38.4853C0.0824546 43.8187 0.89863 49.1487 2.73531 54.1622C4.57198 59.1758 7.39214 63.7716 11.03 67.6798C25.71 84.2498 39.65 76.4799 56.19 61.7799C72.73 47.0799 85.58 30.9998 70.91 14.4498Z" fill="#35BC53"/>
</svg>
