<svg width="571" height="570" fill="none" xmlns="http://www.w3.org/2000/svg"><path d="M236.49 65.19h-24a3 3 0 01-2.47-4.7L222.03 43a3.003 3.003 0 013.919-.985c.436.234.807.572 1.081.985l12 17.48a3.002 3.002 0 01-2.48 4.7l-.06.01zm-18.26-6h12.57l-6.28-9.18-6.29 9.18zM36.72 42.08L2.93 26.36a4.67 4.67 0 01-.41-8.25l28.37-16.8a4.68 4.68 0 014.35-.21 4.66 4.66 0 012.63 3.46l5.42 32.52a4.67 4.67 0 01-6.57 5zM14.9 21.63l17.72 8.25-2.84-17.06-14.88 8.81zM157.03 491.49l-4.19-6.78 6.78-4.19a3.003 3.003 0 00-.89-5.479 3.005 3.005 0 00-2.27.369l-6.78 4.19-4.19-6.78a2.997 2.997 0 00-4.113-.942 3.001 3.001 0 00-.987 4.102l4.19 6.78-6.78 4.19a3.01 3.01 0 00-1.439 1.865 3.003 3.003 0 001.175 3.205 3.003 3.003 0 003.414.03l6.78-4.19 4.19 6.78a3.006 3.006 0 001.862 1.345 2.994 2.994 0 002.268-.365 3.006 3.006 0 001.345-1.862 2.994 2.994 0 00-.365-2.268z" fill="#ED66ED"/><path d="M567.14 146.19l-8.16 2.25-2.25-8.16a2.489 2.489 0 00-1.176-1.509 2.495 2.495 0 00-2.771.202 2.493 2.493 0 00-.944 1.664c-.04.326-.016.656.071.973l2.25 8.16-8.13 2.23a2.497 2.497 0 00-1.745 3.075 2.5 2.5 0 003.075 1.745l8.17-2.25 2.25 8.17a2.497 2.497 0 003.075 1.745 2.5 2.5 0 001.745-3.075l-2.25-8.17 8.16-2.25a2.5 2.5 0 00-1.33-4.82l-.04.02zM323.4 553.06h-8.47v-8.47a2.5 2.5 0 10-5 0v8.47h-8.47a2.5 2.5 0 100 5h8.47v8.47a2.5 2.5 0 105 0v-8.47h8.47a2.5 2.5 0 100-5zM459.61 52.68L448.29 40a2.511 2.511 0 01.19-3.53l12.65-11.32a2.498 2.498 0 013.53.2L476.03 38a2.49 2.49 0 01.631 1.806 2.505 2.505 0 01-.831 1.724l-12.64 11.32a2.496 2.496 0 01-2.788.428 2.502 2.502 0 01-.792-.598zm-5.93-14.12l8 8.92 8.92-8-8-8.93-8.92 8.01z" fill="#fff"/></svg>